<svg xmlns="http://www.w3.org/2000/svg" viewBox="0 0 610 178" width="610" height="178">
<rect width="100%" height="100%" fill="#fff"/>
<rect width="32" height="32" x="17" y="81" fill="#000"/>
<rect width="16" height="48" x="177" y="81" fill="#000"/>
<rect width="16" height="16" x="193" y="65" fill="#000"/>
<rect width="16" height="16" x="193" y="129" fill="#000"/>
<rect width="32" height="16" x="209" y="49" fill="#000"/>
<rect width="32" height="16" x="209" y="145" fill="#000"/>
<rect width="16" height="16" x="241" y="97" fill="#000"/>
<rect width="16" height="16" x="257" y="65" fill="#000"/>
<rect width="16" height="16" x="257" y="129" fill="#000"/>
<rect width="16" height="48" x="273" y="81" fill="#000"/>
<rect width="16" height="16" x="289" y="97" fill="#000"/>
<rect width="32" height="48" x="337" y="49" fill="#000"/>
<rect width="16" height="16" x="369" y="33" fill="#000"/>
<rect width="16" height="16" x="369" y="97" fill="#000"/>
<rect width="16" height="32" x="401" y="17" fill="#000"/>
<rect width="16" height="32" x="401" y="97" fill="#000"/>
<rect width="32" height="32" x="561" y="49" fill="#000"/>
<line x1="305" y1="0" x2="305" y2="178" stroke="#c0c0c0" stroke-width="610" stroke-dasharray="2,14"/>
<line x1="0" y1="89" x2="610" y2="89" stroke="#c0c0c0" stroke-width="178" stroke-dasharray="2,14"/>
</svg>
